<?xml version="1.0" encoding="UTF-8"?>
<!DOCTYPE svg PUBLIC "-//W3C//DTD SVG 1.1//EN" "http://www.w3.org/Graphics/SVG/1.1/DTD/svg11.dtd">
<!-- Creator: CorelDRAW 2021 (64-Bit) -->
<svg xmlns="http://www.w3.org/2000/svg" xml:space="preserve" width="236px" height="236px" version="1.1" style="shape-rendering:geometricPrecision; text-rendering:geometricPrecision; image-rendering:optimizeQuality; fill-rule:evenodd; clip-rule:evenodd"
viewBox="0 0 235 235"
 xmlns:xlink="http://www.w3.org/1999/xlink"
 xmlns:xodm="http://www.corel.com/coreldraw/odm/2003">
 <defs>
  <style type="text/css">
   <![CDATA[
    .fil1 {fill:#0078FF}
    .fil4 {fill:#009933}
    .fil2 {fill:#FF2929}
    .fil3 {fill:#FFCC00}
    .fil0 {fill:white}
   ]]>
  </style>
 </defs>
 <g id="Capa_x0020_1">
  <metadata id="CorelCorpID_0Corel-Layer"/>
  <g id="_2254025483584">
   <circle class="fil0" cx="117" cy="117" r="117"/>
   <g>
    <path class="fil1" d="M207 100c1,6 2,11 2,17 0,27 -12,52 -31,68l-29 -23c10,-7 17,-16 21,-28l-51 0 0 -36 52 0 19 0 18 0z"/>
    <path class="fil2" d="M117 26c24,0 45,9 61,24l-25 25c-10,-8 -22,-13 -36,-13 -24,0 -45,16 -52,37l-29 -23c15,-30 46,-50 81,-50z"/>
    <path class="fil3" d="M37 159c-6,-12 -10,-26 -10,-41 0,-15 3,-28 9,-41l29 23c-2,6 -3,12 -3,18 0,7 1,13 3,19l-29 23z"/>
    <path class="fil4" d="M177 186c-16,14 -37,23 -60,23 -35,0 -66,-20 -81,-50l29 -23c8,21 28,36 52,36 11,0 22,-3 30,-9l29 23z"/>
   </g>
  </g>
 </g>
</svg>
